<mxfile host="Electron" agent="Mozilla/5.0 (Windows NT 10.0; Win64; x64) AppleWebKit/537.36 (KHTML, like Gecko) draw.io/27.0.9 Chrome/134.0.6998.205 Electron/35.4.0 Safari/537.36" version="27.0.9">
  <diagram id="XvpSF2T5NKOSLbSbpYWd" name="Integration model">
    <mxGraphModel dx="1737" dy="1043" grid="1" gridSize="10" guides="1" tooltips="1" connect="1" arrows="1" fold="1" page="1" pageScale="1" pageWidth="1920" pageHeight="1200" math="0" shadow="0">
      <root>
        <mxCell id="0" />
        <mxCell id="1" parent="0" />
        <mxCell id="qPGfRfm3b58DvJ63Z_VG-1" value="" style="rounded=0;whiteSpace=wrap;html=1;" vertex="1" parent="1">
          <mxGeometry x="320" y="260" width="1280" height="700" as="geometry" />
        </mxCell>
        <mxCell id="r1VvHyMv01WRFSCQYeXk-13" value="" style="rounded=1;whiteSpace=wrap;html=1;arcSize=7;dashed=1;fillColor=none;" parent="1" vertex="1">
          <mxGeometry x="1085" y="312" width="480" height="603" as="geometry" />
        </mxCell>
        <mxCell id="r1VvHyMv01WRFSCQYeXk-11" value="" style="rounded=1;whiteSpace=wrap;html=1;arcSize=7;dashed=1;fillColor=none;" parent="1" vertex="1">
          <mxGeometry x="355" y="312" width="690" height="603" as="geometry" />
        </mxCell>
        <mxCell id="UEo_mYXQSlbNZmocaUZW-5" value="&lt;b&gt;crm_cust_info&lt;/b&gt;" style="swimlane;fontStyle=0;childLayout=stackLayout;horizontal=1;startSize=30;horizontalStack=0;resizeParent=1;resizeParentMax=0;resizeLast=0;collapsible=1;marginBottom=0;whiteSpace=wrap;html=1;rounded=1;fillColor=#dae8fc;strokeColor=#6c8ebf;fontSize=24;" parent="1" vertex="1">
          <mxGeometry x="775" y="665" width="240" height="140" as="geometry" />
        </mxCell>
        <mxCell id="UEo_mYXQSlbNZmocaUZW-6" value="cst_id" style="text;strokeColor=none;fillColor=none;align=left;verticalAlign=middle;spacingLeft=4;spacingRight=4;overflow=hidden;points=[[0,0.5],[1,0.5]];portConstraint=eastwest;rotatable=0;whiteSpace=wrap;html=1;fontSize=24;" parent="UEo_mYXQSlbNZmocaUZW-5" vertex="1">
          <mxGeometry y="30" width="240" height="40" as="geometry" />
        </mxCell>
        <mxCell id="UEo_mYXQSlbNZmocaUZW-19" value="cst_key" style="text;strokeColor=none;fillColor=none;align=left;verticalAlign=middle;spacingLeft=4;spacingRight=4;overflow=hidden;points=[[0,0.5],[1,0.5]];portConstraint=eastwest;rotatable=0;whiteSpace=wrap;html=1;fontSize=24;" parent="UEo_mYXQSlbNZmocaUZW-5" vertex="1">
          <mxGeometry y="70" width="240" height="40" as="geometry" />
        </mxCell>
        <mxCell id="XGtv4kb3071lfPBZcE3V-3" value="&lt;font style=&quot;font-size: 20px;&quot;&gt;&lt;b&gt;CUSTOMER&lt;/b&gt;&lt;/font&gt;" style="text;html=1;strokeColor=#82b366;fillColor=#d5e8d4;align=center;verticalAlign=middle;whiteSpace=wrap;overflow=hidden;" parent="UEo_mYXQSlbNZmocaUZW-5" vertex="1">
          <mxGeometry y="110" width="240" height="30" as="geometry" />
        </mxCell>
        <mxCell id="UEo_mYXQSlbNZmocaUZW-9" value="&lt;font style=&quot;font-size: 14px;&quot;&gt;Customer Information&lt;/font&gt;" style="text;html=1;align=left;verticalAlign=middle;whiteSpace=wrap;rounded=0;" parent="1" vertex="1">
          <mxGeometry x="775" y="642" width="140" height="30" as="geometry" />
        </mxCell>
        <mxCell id="UEo_mYXQSlbNZmocaUZW-10" value="&lt;b&gt;crm_prd_info&lt;/b&gt;" style="swimlane;fontStyle=0;childLayout=stackLayout;horizontal=1;startSize=30;horizontalStack=0;resizeParent=1;resizeParentMax=0;resizeLast=0;collapsible=1;marginBottom=0;whiteSpace=wrap;html=1;rounded=1;fillColor=#dae8fc;strokeColor=#6c8ebf;fontSize=24;arcSize=12;swimlaneLine=1;" parent="1" vertex="1">
          <mxGeometry x="775" y="465" width="240" height="100" as="geometry">
            <mxRectangle x="440" y="410" width="190" height="40" as="alternateBounds" />
          </mxGeometry>
        </mxCell>
        <mxCell id="UEo_mYXQSlbNZmocaUZW-11" value="prd_key" style="text;strokeColor=none;fillColor=none;align=left;verticalAlign=middle;spacingLeft=4;spacingRight=4;overflow=hidden;points=[[0,0.5],[1,0.5]];portConstraint=eastwest;rotatable=0;whiteSpace=wrap;html=1;fontSize=24;" parent="UEo_mYXQSlbNZmocaUZW-10" vertex="1">
          <mxGeometry y="30" width="240" height="40" as="geometry" />
        </mxCell>
        <mxCell id="XGtv4kb3071lfPBZcE3V-1" value="&lt;font style=&quot;font-size: 20px;&quot;&gt;&lt;b&gt;PRODUCT&lt;/b&gt;&lt;/font&gt;" style="text;html=1;strokeColor=#b85450;fillColor=#f8cecc;align=center;verticalAlign=middle;whiteSpace=wrap;overflow=hidden;" parent="UEo_mYXQSlbNZmocaUZW-10" vertex="1">
          <mxGeometry y="70" width="240" height="30" as="geometry" />
        </mxCell>
        <mxCell id="UEo_mYXQSlbNZmocaUZW-12" value="&lt;font style=&quot;font-size: 14px;&quot;&gt;Product Information&lt;/font&gt;" style="text;html=1;align=left;verticalAlign=middle;whiteSpace=wrap;rounded=0;" parent="1" vertex="1">
          <mxGeometry x="775" y="442" width="140" height="30" as="geometry" />
        </mxCell>
        <mxCell id="UEo_mYXQSlbNZmocaUZW-13" value="&lt;b&gt;crm_sales_details&lt;/b&gt;" style="swimlane;fontStyle=0;childLayout=stackLayout;horizontal=1;startSize=30;horizontalStack=0;resizeParent=1;resizeParentMax=0;resizeLast=0;collapsible=1;marginBottom=0;whiteSpace=wrap;html=1;rounded=1;fillColor=#dae8fc;strokeColor=#6c8ebf;fontSize=24;" parent="1" vertex="1">
          <mxGeometry x="375" y="535" width="240" height="110" as="geometry" />
        </mxCell>
        <mxCell id="UEo_mYXQSlbNZmocaUZW-14" value="prd_key" style="text;strokeColor=none;fillColor=none;align=left;verticalAlign=middle;spacingLeft=4;spacingRight=4;overflow=hidden;points=[[0,0.5],[1,0.5]];portConstraint=eastwest;rotatable=0;whiteSpace=wrap;html=1;fontSize=24;" parent="UEo_mYXQSlbNZmocaUZW-13" vertex="1">
          <mxGeometry y="30" width="240" height="40" as="geometry" />
        </mxCell>
        <mxCell id="UEo_mYXQSlbNZmocaUZW-16" value="cst_id" style="text;strokeColor=none;fillColor=none;align=left;verticalAlign=middle;spacingLeft=4;spacingRight=4;overflow=hidden;points=[[0,0.5],[1,0.5]];portConstraint=eastwest;rotatable=0;whiteSpace=wrap;html=1;fontSize=24;" parent="UEo_mYXQSlbNZmocaUZW-13" vertex="1">
          <mxGeometry y="70" width="240" height="40" as="geometry" />
        </mxCell>
        <mxCell id="UEo_mYXQSlbNZmocaUZW-15" value="&lt;font style=&quot;font-size: 14px;&quot;&gt;Sales Details&lt;/font&gt;" style="text;html=1;align=left;verticalAlign=middle;whiteSpace=wrap;rounded=0;" parent="1" vertex="1">
          <mxGeometry x="385" y="515" width="140" height="30" as="geometry" />
        </mxCell>
        <mxCell id="UEo_mYXQSlbNZmocaUZW-17" style="edgeStyle=orthogonalEdgeStyle;rounded=0;orthogonalLoop=1;jettySize=auto;html=1;exitX=1;exitY=0.5;exitDx=0;exitDy=0;entryX=-0.013;entryY=0.07;entryDx=0;entryDy=0;entryPerimeter=0;" parent="1" source="UEo_mYXQSlbNZmocaUZW-16" target="UEo_mYXQSlbNZmocaUZW-6" edge="1">
          <mxGeometry relative="1" as="geometry" />
        </mxCell>
        <mxCell id="UEo_mYXQSlbNZmocaUZW-18" style="edgeStyle=orthogonalEdgeStyle;rounded=0;orthogonalLoop=1;jettySize=auto;html=1;exitX=1;exitY=0.5;exitDx=0;exitDy=0;entryX=0;entryY=0.5;entryDx=0;entryDy=0;" parent="1" source="UEo_mYXQSlbNZmocaUZW-14" target="UEo_mYXQSlbNZmocaUZW-10" edge="1">
          <mxGeometry relative="1" as="geometry" />
        </mxCell>
        <mxCell id="UEo_mYXQSlbNZmocaUZW-20" value="&lt;b&gt;erp_cust_az12&lt;/b&gt;" style="swimlane;fontStyle=0;childLayout=stackLayout;horizontal=1;startSize=30;horizontalStack=0;resizeParent=1;resizeParentMax=0;resizeLast=0;collapsible=1;marginBottom=0;whiteSpace=wrap;html=1;rounded=1;fillColor=#fff2cc;strokeColor=#d6b656;fontSize=24;" parent="1" vertex="1">
          <mxGeometry x="1205" y="795" width="240" height="100" as="geometry" />
        </mxCell>
        <mxCell id="UEo_mYXQSlbNZmocaUZW-21" value="cid" style="text;strokeColor=none;fillColor=none;align=left;verticalAlign=middle;spacingLeft=4;spacingRight=4;overflow=hidden;points=[[0,0.5],[1,0.5]];portConstraint=eastwest;rotatable=0;whiteSpace=wrap;html=1;fontSize=24;" parent="UEo_mYXQSlbNZmocaUZW-20" vertex="1">
          <mxGeometry y="30" width="240" height="40" as="geometry" />
        </mxCell>
        <mxCell id="XGtv4kb3071lfPBZcE3V-6" value="&lt;font style=&quot;font-size: 20px;&quot;&gt;&lt;b&gt;CUSTOMER&lt;/b&gt;&lt;/font&gt;" style="text;html=1;strokeColor=#82b366;fillColor=#d5e8d4;align=center;verticalAlign=middle;whiteSpace=wrap;overflow=hidden;" parent="UEo_mYXQSlbNZmocaUZW-20" vertex="1">
          <mxGeometry y="70" width="240" height="30" as="geometry" />
        </mxCell>
        <mxCell id="UEo_mYXQSlbNZmocaUZW-22" value="&lt;font style=&quot;font-size: 14px;&quot;&gt;Extra Customer Information(birthdate)&lt;/font&gt;" style="text;html=1;align=left;verticalAlign=middle;whiteSpace=wrap;rounded=0;" parent="1" vertex="1">
          <mxGeometry x="1205" y="772" width="240" height="30" as="geometry" />
        </mxCell>
        <mxCell id="r1VvHyMv01WRFSCQYeXk-1" value="&lt;b&gt;erp_loc_a101&lt;/b&gt;" style="swimlane;fontStyle=0;childLayout=stackLayout;horizontal=1;startSize=30;horizontalStack=0;resizeParent=1;resizeParentMax=0;resizeLast=0;collapsible=1;marginBottom=0;whiteSpace=wrap;html=1;rounded=1;fillColor=#fff2cc;strokeColor=#d6b656;fontSize=24;" parent="1" vertex="1">
          <mxGeometry x="1205" y="605" width="240" height="100" as="geometry" />
        </mxCell>
        <mxCell id="r1VvHyMv01WRFSCQYeXk-2" value="cid" style="text;strokeColor=none;fillColor=none;align=left;verticalAlign=middle;spacingLeft=4;spacingRight=4;overflow=hidden;points=[[0,0.5],[1,0.5]];portConstraint=eastwest;rotatable=0;whiteSpace=wrap;html=1;fontSize=24;" parent="r1VvHyMv01WRFSCQYeXk-1" vertex="1">
          <mxGeometry y="30" width="240" height="40" as="geometry" />
        </mxCell>
        <mxCell id="XGtv4kb3071lfPBZcE3V-5" value="&lt;font style=&quot;font-size: 20px;&quot;&gt;&lt;b&gt;CUSTOMER&lt;/b&gt;&lt;/font&gt;" style="text;html=1;strokeColor=#82b366;fillColor=#d5e8d4;align=center;verticalAlign=middle;whiteSpace=wrap;overflow=hidden;" parent="r1VvHyMv01WRFSCQYeXk-1" vertex="1">
          <mxGeometry y="70" width="240" height="30" as="geometry" />
        </mxCell>
        <mxCell id="r1VvHyMv01WRFSCQYeXk-3" value="&lt;font style=&quot;font-size: 14px;&quot;&gt;Location of Customers (Country)&lt;/font&gt;" style="text;html=1;align=left;verticalAlign=middle;whiteSpace=wrap;rounded=0;" parent="1" vertex="1">
          <mxGeometry x="1205" y="582" width="240" height="30" as="geometry" />
        </mxCell>
        <mxCell id="r1VvHyMv01WRFSCQYeXk-4" style="edgeStyle=orthogonalEdgeStyle;rounded=0;orthogonalLoop=1;jettySize=auto;html=1;entryX=0.002;entryY=0.074;entryDx=0;entryDy=0;entryPerimeter=0;" parent="1" source="UEo_mYXQSlbNZmocaUZW-19" target="UEo_mYXQSlbNZmocaUZW-21" edge="1">
          <mxGeometry relative="1" as="geometry" />
        </mxCell>
        <mxCell id="r1VvHyMv01WRFSCQYeXk-5" style="edgeStyle=orthogonalEdgeStyle;rounded=0;orthogonalLoop=1;jettySize=auto;html=1;entryX=-0.01;entryY=0.047;entryDx=0;entryDy=0;entryPerimeter=0;" parent="1" source="UEo_mYXQSlbNZmocaUZW-19" target="r1VvHyMv01WRFSCQYeXk-2" edge="1">
          <mxGeometry relative="1" as="geometry" />
        </mxCell>
        <mxCell id="r1VvHyMv01WRFSCQYeXk-6" value="&lt;b&gt;erp_px_cat_g1v2&lt;/b&gt;" style="swimlane;fontStyle=0;childLayout=stackLayout;horizontal=1;startSize=30;horizontalStack=0;resizeParent=1;resizeParentMax=0;resizeLast=0;collapsible=1;marginBottom=0;whiteSpace=wrap;html=1;rounded=1;fillColor=#fff2cc;strokeColor=#d6b656;fontSize=24;" parent="1" vertex="1">
          <mxGeometry x="1205" y="395" width="240" height="100" as="geometry" />
        </mxCell>
        <mxCell id="r1VvHyMv01WRFSCQYeXk-7" value="id" style="text;strokeColor=none;fillColor=none;align=left;verticalAlign=middle;spacingLeft=4;spacingRight=4;overflow=hidden;points=[[0,0.5],[1,0.5]];portConstraint=eastwest;rotatable=0;whiteSpace=wrap;html=1;fontSize=24;" parent="r1VvHyMv01WRFSCQYeXk-6" vertex="1">
          <mxGeometry y="30" width="240" height="40" as="geometry" />
        </mxCell>
        <mxCell id="XGtv4kb3071lfPBZcE3V-4" value="&lt;font style=&quot;font-size: 20px;&quot;&gt;&lt;b&gt;PRODUCT&lt;/b&gt;&lt;/font&gt;" style="text;html=1;strokeColor=#b85450;fillColor=#f8cecc;align=center;verticalAlign=middle;whiteSpace=wrap;overflow=hidden;" parent="r1VvHyMv01WRFSCQYeXk-6" vertex="1">
          <mxGeometry y="70" width="240" height="30" as="geometry" />
        </mxCell>
        <mxCell id="r1VvHyMv01WRFSCQYeXk-8" value="&lt;font style=&quot;font-size: 14px;&quot;&gt;Extra Product Information(Categories)&lt;/font&gt;" style="text;html=1;align=left;verticalAlign=middle;whiteSpace=wrap;rounded=0;" parent="1" vertex="1">
          <mxGeometry x="1205" y="372" width="240" height="30" as="geometry" />
        </mxCell>
        <mxCell id="r1VvHyMv01WRFSCQYeXk-10" style="edgeStyle=orthogonalEdgeStyle;rounded=0;orthogonalLoop=1;jettySize=auto;html=1;entryX=0;entryY=0.5;entryDx=0;entryDy=0;" parent="1" source="UEo_mYXQSlbNZmocaUZW-11" target="r1VvHyMv01WRFSCQYeXk-7" edge="1">
          <mxGeometry relative="1" as="geometry" />
        </mxCell>
        <mxCell id="r1VvHyMv01WRFSCQYeXk-12" value="&lt;font&gt;CRM&lt;/font&gt;" style="rounded=1;whiteSpace=wrap;html=1;fontSize=46;fontStyle=1;fillColor=#dae8fc;strokeColor=#6c8ebf;" parent="1" vertex="1">
          <mxGeometry x="565" y="285" width="230" height="50" as="geometry" />
        </mxCell>
        <mxCell id="r1VvHyMv01WRFSCQYeXk-14" value="&lt;font&gt;ERP&lt;/font&gt;" style="rounded=1;whiteSpace=wrap;html=1;fontSize=46;fontStyle=1;fillColor=#fff2cc;strokeColor=#d6b656;" parent="1" vertex="1">
          <mxGeometry x="1210" y="285" width="185" height="50" as="geometry" />
        </mxCell>
        <mxCell id="qPGfRfm3b58DvJ63Z_VG-2" value="Integration Model" style="text;html=1;align=center;verticalAlign=middle;whiteSpace=wrap;rounded=0;fontSize=50;fontStyle=1" vertex="1" parent="1">
          <mxGeometry x="742" y="190" width="437" height="70" as="geometry" />
        </mxCell>
      </root>
    </mxGraphModel>
  </diagram>
</mxfile>
